<mxfile host="app.diagrams.net" agent="Mozilla/5.0 (Macintosh; Intel Mac OS X 10_15_7) AppleWebKit/537.36 (KHTML, like Gecko) Chrome/131.0.0.0 Safari/537.36" version="25.0.3">
  <diagram name="第 1 页" id="GY57q2VWtPJcynunzRBL">
    <mxGraphModel dx="954" dy="485" grid="1" gridSize="10" guides="1" tooltips="1" connect="1" arrows="1" fold="1" page="1" pageScale="1" pageWidth="827" pageHeight="1169" math="0" shadow="0">
      <root>
        <mxCell id="0" />
        <mxCell id="1" parent="0" />
        <mxCell id="YrjdOQY2QX7prscHD4Ri-1" value="" style="whiteSpace=wrap;html=1;aspect=fixed;" vertex="1" parent="1">
          <mxGeometry x="110" y="80" width="240" height="240" as="geometry" />
        </mxCell>
        <mxCell id="YrjdOQY2QX7prscHD4Ri-3" value="&amp;nbsp; &amp;nbsp; &amp;nbsp; &amp;nbsp; &amp;nbsp; &amp;nbsp; &amp;nbsp; &amp;nbsp; &amp;nbsp; &amp;nbsp; &amp;nbsp; &amp;nbsp; &amp;nbsp; &amp;nbsp; &amp;nbsp; &amp;nbsp; &amp;nbsp; &amp;nbsp; &amp;nbsp; &amp;nbsp; &amp;nbsp; &amp;nbsp; &amp;nbsp;&amp;nbsp;" style="rounded=1;whiteSpace=wrap;html=1;" vertex="1" parent="1">
          <mxGeometry x="120" y="90" width="220" height="60" as="geometry" />
        </mxCell>
        <mxCell id="YrjdOQY2QX7prscHD4Ri-7" value="" style="rounded=1;whiteSpace=wrap;html=1;" vertex="1" parent="1">
          <mxGeometry x="120" y="160" width="220" height="60" as="geometry" />
        </mxCell>
        <mxCell id="YrjdOQY2QX7prscHD4Ri-8" value="" style="rounded=1;whiteSpace=wrap;html=1;" vertex="1" parent="1">
          <mxGeometry x="120" y="240" width="220" height="60" as="geometry" />
        </mxCell>
        <mxCell id="YrjdOQY2QX7prscHD4Ri-9" value="View" style="ellipse;whiteSpace=wrap;html=1;aspect=fixed;" vertex="1" parent="1">
          <mxGeometry x="160" y="95" width="50" height="50" as="geometry" />
        </mxCell>
        <mxCell id="YrjdOQY2QX7prscHD4Ri-10" value="View" style="ellipse;whiteSpace=wrap;html=1;aspect=fixed;" vertex="1" parent="1">
          <mxGeometry x="240" y="95" width="50" height="50" as="geometry" />
        </mxCell>
        <mxCell id="YrjdOQY2QX7prscHD4Ri-11" value="View" style="ellipse;whiteSpace=wrap;html=1;aspect=fixed;" vertex="1" parent="1">
          <mxGeometry x="160" y="165" width="50" height="50" as="geometry" />
        </mxCell>
        <mxCell id="YrjdOQY2QX7prscHD4Ri-12" value="View" style="ellipse;whiteSpace=wrap;html=1;aspect=fixed;" vertex="1" parent="1">
          <mxGeometry x="240" y="165" width="50" height="50" as="geometry" />
        </mxCell>
        <mxCell id="YrjdOQY2QX7prscHD4Ri-13" value="View" style="ellipse;whiteSpace=wrap;html=1;aspect=fixed;" vertex="1" parent="1">
          <mxGeometry x="240" y="245" width="50" height="50" as="geometry" />
        </mxCell>
        <mxCell id="YrjdOQY2QX7prscHD4Ri-14" value="View" style="ellipse;whiteSpace=wrap;html=1;aspect=fixed;" vertex="1" parent="1">
          <mxGeometry x="160" y="245" width="50" height="50" as="geometry" />
        </mxCell>
        <mxCell id="YrjdOQY2QX7prscHD4Ri-15" value="" style="ellipse;whiteSpace=wrap;html=1;" vertex="1" parent="1">
          <mxGeometry x="470" y="70" width="240" height="250" as="geometry" />
        </mxCell>
        <mxCell id="YrjdOQY2QX7prscHD4Ri-16" value="" style="endArrow=classic;html=1;rounded=0;entryX=0.6;entryY=0.7;entryDx=0;entryDy=0;entryPerimeter=0;" edge="1" parent="1">
          <mxGeometry width="50" height="50" relative="1" as="geometry">
            <mxPoint x="454" y="194.5" as="sourcePoint" />
            <mxPoint x="374" y="194.5" as="targetPoint" />
          </mxGeometry>
        </mxCell>
        <mxCell id="YrjdOQY2QX7prscHD4Ri-17" value="View" style="ellipse;whiteSpace=wrap;html=1;aspect=fixed;" vertex="1" parent="1">
          <mxGeometry x="520" y="115" width="50" height="50" as="geometry" />
        </mxCell>
        <mxCell id="YrjdOQY2QX7prscHD4Ri-18" value="View" style="ellipse;whiteSpace=wrap;html=1;aspect=fixed;" vertex="1" parent="1">
          <mxGeometry x="600" y="100" width="50" height="50" as="geometry" />
        </mxCell>
        <mxCell id="YrjdOQY2QX7prscHD4Ri-19" value="View" style="ellipse;whiteSpace=wrap;html=1;aspect=fixed;" vertex="1" parent="1">
          <mxGeometry x="620" y="195" width="50" height="50" as="geometry" />
        </mxCell>
        <mxCell id="YrjdOQY2QX7prscHD4Ri-20" value="View" style="ellipse;whiteSpace=wrap;html=1;aspect=fixed;" vertex="1" parent="1">
          <mxGeometry x="500" y="195" width="50" height="50" as="geometry" />
        </mxCell>
        <mxCell id="YrjdOQY2QX7prscHD4Ri-21" value="View" style="ellipse;whiteSpace=wrap;html=1;aspect=fixed;" vertex="1" parent="1">
          <mxGeometry x="560" y="245" width="50" height="50" as="geometry" />
        </mxCell>
        <mxCell id="YrjdOQY2QX7prscHD4Ri-22" value="View" style="ellipse;whiteSpace=wrap;html=1;aspect=fixed;" vertex="1" parent="1">
          <mxGeometry x="560" y="165" width="50" height="50" as="geometry" />
        </mxCell>
        <mxCell id="YrjdOQY2QX7prscHD4Ri-23" value="" style="rounded=0;whiteSpace=wrap;html=1;" vertex="1" parent="1">
          <mxGeometry x="170" y="640" width="430" height="190" as="geometry" />
        </mxCell>
        <mxCell id="YrjdOQY2QX7prscHD4Ri-24" value="曲线图" style="shape=tape;whiteSpace=wrap;html=1;" vertex="1" parent="1">
          <mxGeometry x="110" y="700" width="580" height="100" as="geometry" />
        </mxCell>
        <mxCell id="YrjdOQY2QX7prscHD4Ri-25" value="逐小时卡片ScrollView" style="rounded=0;whiteSpace=wrap;html=1;strokeColor=none;" vertex="1" parent="1">
          <mxGeometry x="190" y="650" width="140" height="60" as="geometry" />
        </mxCell>
      </root>
    </mxGraphModel>
  </diagram>
</mxfile>
